<?xml version="1.0" encoding="UTF-8" standalone="no"?>
<!DOCTYPE svg PUBLIC "-//W3C//DTD SVG 1.1//EN" "http://www.w3.org/Graphics/SVG/1.1/DTD/svg11.dtd">
<!--Generated by Intaglio, www.PurgatoryDesign.com-->
<svg version="1.1" viewBox="0,0,576,734" width="576" height="734" xmlns="http://www.w3.org/2000/svg" xmlns:xlink="http://www.w3.org/1999/xlink" xmlns:intaglio="http://purgatorydesign.com/namespaces/intaglio" intaglio:grid="18,18,1,1,0.5,#9999bf,1,0,0,1" intaglio:guides="0.8,#f0f,1,1"><g><path fill="none" stroke="#611f19" stroke-width="3" d="M130.667,101.667 C130.667,108.294,136.039,113.667,142.667,113.667 C149.294,113.667,154.667,108.294,154.667,101.667"/><path fill="none" stroke="#611f19" stroke-width="3" d="M130.667,101.667 C130.667,91.7255,138.726,83.6666,148.667,83.6666 C158.608,83.6666,166.667,91.7255,166.667,101.667 C166.667,101.667,166.667,101.667,166.667,101.667"/><path fill="none" stroke="#611f19" stroke-width="3" d="M142.667,101.667 C142.667,108.294,148.039,113.667,154.667,113.667 C161.294,113.667,166.667,108.294,166.667,101.667"/><path fill="none" stroke="#611f19" stroke-width="3" d="M142.667,101.667 C142.667,91.7255,150.726,83.6666,160.667,83.6666 C170.608,83.6666,178.667,91.7255,178.667,101.667 C178.667,101.667,178.667,101.667,178.667,101.667"/><path fill="none" stroke="#611f19" stroke-width="3" d="M118.667,101.667 C118.667,91.7255,126.726,83.6666,136.667,83.6666 C146.608,83.6666,154.667,91.7255,154.667,101.667 C154.667,101.667,154.667,101.667,154.667,101.667"/><path fill="none" stroke="#611f19" stroke-width="3" d="M154.667,101.667 C154.667,108.294,160.039,113.667,166.667,113.667 C173.294,113.667,178.667,108.294,178.667,101.667"/><path fill="none" stroke="#611f19" stroke-width="3" d="M154.667,101.667 C154.667,91.7255,162.726,83.6666,172.667,83.6666 C182.608,83.6666,190.667,91.7255,190.667,101.667 C190.667,101.667,190.667,101.667,190.667,101.667"/><path fill="none" stroke="#611f19" stroke-width="3" d="M166.667,101.667 C166.667,108.294,172.039,113.667,178.667,113.667 C185.294,113.667,190.667,108.294,190.667,101.667"/><path fill="none" stroke="#611f19" stroke-width="3" d="M166.667,101.667 C166.667,91.7255,174.726,83.6666,184.667,83.6666 C194.608,83.6666,202.667,91.7255,202.667,101.667 C202.667,101.667,202.667,101.667,202.667,101.667"/><path fill="none" stroke="#611f19" stroke-width="3" d="M118.667,101.667 C118.667,108.294,124.039,113.667,130.667,113.667 C137.294,113.667,142.667,108.294,142.667,101.667"/><path fill="none" stroke="#611f19" stroke-width="3" d="M106.667,101.667 C106.667,91.7255,114.726,83.6666,124.667,83.6666 C134.608,83.6666,142.667,91.7255,142.667,101.667 C142.667,101.667,142.667,101.667,142.667,101.667"/><path fill="none" stroke="#611f19" stroke-width="3" d="M208.667,101.667 L202.667,101.667"/><path fill="none" stroke="#611f19" stroke-width="3" d="M106.667,101.667 L100.667,101.667"/></g><g><path fill="none" stroke="#611f19" stroke-width="3" d="M282,101.667 C282,108.294,287.373,113.667,294,113.667 C300.627,113.667,306,108.294,306,101.667"/><path fill="none" stroke="#611f19" stroke-width="3" d="M282,101.667 C282,91.7255,290.059,83.6666,300,83.6666 C309.941,83.6666,318,91.7255,318,101.667 C318,101.667,318,101.667,318,101.667"/><path fill="none" stroke="#611f19" stroke-width="3" d="M294,101.667 C294,108.294,299.373,113.667,306,113.667 C312.627,113.667,318,108.294,318,101.667"/><path fill="none" stroke="#611f19" stroke-width="3" d="M294,101.667 C294,91.7255,302.059,83.6666,312,83.6666 C321.941,83.6666,330,91.7255,330,101.667 C330,101.667,330,101.667,330,101.667"/><path fill="none" stroke="#611f19" stroke-width="3" d="M270,101.667 C270,91.7255,278.059,83.6666,288,83.6666 C297.941,83.6666,306,91.7255,306,101.667 C306,101.667,306,101.667,306,101.667"/><path fill="none" stroke="#611f19" stroke-width="3" d="M306,101.667 C306,108.294,311.373,113.667,318,113.667 C324.627,113.667,330,108.294,330,101.667"/><path fill="none" stroke="#611f19" stroke-width="3" d="M306,101.667 C306,91.7255,314.059,83.6666,324,83.6666 C333.941,83.6666,342,91.7255,342,101.667 C342,101.667,342,101.667,342,101.667"/><path fill="none" stroke="#611f19" stroke-width="3" d="M318,101.667 C318,108.294,323.373,113.667,330,113.667 C336.627,113.667,342,108.294,342,101.667"/><path fill="none" stroke="#611f19" stroke-width="3" d="M318,101.667 C318,91.7255,326.059,83.6666,336,83.6666 C345.941,83.6666,354,91.7255,354,101.667 C354,101.667,354,101.667,354,101.667"/><path fill="none" stroke="#611f19" stroke-width="3" d="M270,101.667 C270,108.294,275.373,113.667,282,113.667 C288.627,113.667,294,108.294,294,101.667"/><path fill="none" stroke="#611f19" stroke-width="3" d="M258,101.667 C258,91.7255,266.059,83.6666,276,83.6666 C285.941,83.6666,294,91.7255,294,101.667 C294,101.667,294,101.667,294,101.667"/><path fill="none" stroke="#611f19" stroke-width="3" d="M360,101.667 L354,101.667"/><path fill="none" stroke="#611f19" stroke-width="3" d="M258,101.667 L252,101.667"/></g><path fill="#80c6c4" d="M253.667,99.8333 C253.667,112.26,243.593,122.333,231.167,122.333 C218.74,122.333,208.667,112.26,208.667,99.8333 C208.667,87.4069,218.74,77.3333,231.167,77.3333 C243.593,77.3333,253.667,87.4069,253.667,99.8333 Z"/><path fill="#80c6c4" d="M396,101.333 C396,111.274,387.941,119.333,378,119.333 C368.059,119.333,360,111.274,360,101.333 C360,91.3922,368.059,83.3333,378,83.3333 C387.941,83.3333,396,91.3922,396,101.333 Z"/><text fill="#000100" font-family="Geneva" font-size="32" transform="matrix(1,0,-0,1,162,72)" xml:space="preserve"><tspan>k</tspan></text><text fill="#000100" font-family="Geneva" font-size="32" transform="matrix(1,0,-0,1,306,72)" xml:space="preserve"><tspan>k</tspan></text><path fill="#80c6c4" d="M102,101.333 C102,111.274,93.9411,119.333,84,119.333 C74.0589,119.333,66,111.274,66,101.333 C66,91.3922,74.0589,83.3333,84,83.3333 C93.9411,83.3333,102,91.3922,102,101.333 Z"/><text fill="#000100" font-family="Helvetica" font-weight="bold" font-size="24" transform="matrix(1,0,0,1,214,107.333)" xml:space="preserve"><tspan>2m</tspan></text><text fill="#000100" font-family="Helvetica" font-weight="bold" font-size="24" transform="matrix(1,0,0,1,72.4387,108)" xml:space="preserve"><tspan>m</tspan></text><text fill="#000100" font-family="Helvetica" font-weight="bold" font-size="24" transform="matrix(1,0,0,1,366.439,108)" xml:space="preserve"><tspan>m</tspan></text><g><path fill="none" intaglio:arrow-end="1" stroke="#611f19" stroke-width="4" d="M18,144 L66.4777,144" intaglio:d="M18,144 L83.1027,144"/><path fill="#611f19" intaglio:omit="yes" d="M65.6027,137 L83.1027,144 L65.6027,151"/></g><path fill="none" stroke="#611f19" stroke-width="4" stroke-dasharray="10" d="M18,72 L18,216"/><g><path fill="none" intaglio:arrow-end="1" stroke="#611f19" stroke-width="4" d="M18,169.333 L214.338,169.333" intaglio:d="M18,169.333 L230.963,169.333"/><path fill="#611f19" intaglio:omit="yes" d="M213.463,162.333 L230.963,169.333 L213.463,176.333"/></g><g><path fill="none" intaglio:arrow-end="1" stroke="#611f19" stroke-width="4" d="M18,198 L361.375,198" intaglio:d="M18,198 L378,198"/><path fill="#611f19" intaglio:omit="yes" d="M360.5,191 L378,198 L360.5,205"/></g><text fill="#000100" font-family="Helvetica" font-size="24" transform="matrix(1,0,0,1,88.9335,144)" xml:space="preserve"><tspan>x</tspan><tspan baseline-shift="sub">1</tspan></text><text fill="#000100" font-family="Helvetica" font-size="24" transform="matrix(1,0,0,1,234,168.667)" xml:space="preserve"><tspan>x</tspan><tspan baseline-shift="sub">2</tspan></text><text fill="#000100" font-family="Helvetica" font-size="24" transform="matrix(1,0,0,1,382.933,198)" xml:space="preserve"><tspan>x</tspan><tspan baseline-shift="sub">3</tspan></text></svg>
