<?xml version="1.0" encoding="UTF-8" standalone="no"?>
<!DOCTYPE svg PUBLIC "-//W3C//DTD SVG 1.1//EN" "http://www.w3.org/Graphics/SVG/1.1/DTD/svg11.dtd">
<!--Generated by Intaglio, www.PurgatoryDesign.com-->
<svg version="1.1" viewBox="0,0,576,734" width="576" height="734" xmlns="http://www.w3.org/2000/svg" xmlns:xlink="http://www.w3.org/1999/xlink" xmlns:intaglio="http://purgatorydesign.com/namespaces/intaglio" intaglio:grid="18,18,1,1,0.5,#9999bf,1,0,0,1" intaglio:guides="0.8,#f0f,1,1"><path fill="#fffffe" stroke="#611f19" stroke-width="4" d="M450,261 C450,355.441,373.441,432,279,432 C184.559,432,108,355.441,108,261 C108,166.559,184.559,90,279,90 C373.441,90,450,166.559,450,261 Z"/><g><path fill="none" intaglio:arrow-end="1" stroke="#611f19" stroke-width="4" d="M279,261 L384.244,155.756" intaglio:d="M279,261 L396,144"/><path fill="#611f19" intaglio:omit="yes" d="M378.676,151.425 L396,144 L388.575,161.324"/></g><g><path fill="none" intaglio:arrow-end="1" stroke="#611f19" stroke-width="4" d="M279,261 L189.831,139.406" intaglio:d="M279,261 L180,126"/><path fill="#611f19" intaglio:omit="yes" d="M184.704,144.252 L180,126 L195.994,135.973"/></g><path fill="none" stroke="#611f19" stroke-width="2" stroke-dasharray="5" d="M180,126 L396,144"/><path fill="none" stroke="#611f19" stroke-width="2" stroke-dasharray="5" d="M279,261 L288,135"/><text fill="#000100" font-family="Geneva" font-size="18" transform="matrix(1,0,0,1,288,212.139)" xml:space="preserve"><tspan>θ/2</tspan></text><text fill="#000100" font-family="Geneva" font-size="18" transform="matrix(1,0,0,1,252,212.139)" xml:space="preserve"><tspan>θ/2</tspan></text><text fill="#000100" font-family="Geneva" font-size="18" transform="matrix(1,0,0,1,270,126)" xml:space="preserve"><tspan>x=0</tspan></text><text fill="#000100" font-family="Geneva" font-size="18" transform="matrix(1,0,0,1,108,126)" xml:space="preserve"><tspan kerning="0">Chicago</tspan></text><text fill="#000100" font-family="Geneva" font-size="18" transform="matrix(1,0,0,1,414,144)" xml:space="preserve"><tspan>Rome</tspan></text></svg>
